<svg xmlns="http://www.w3.org/2000/svg"  viewBox="0 0 64 64" width="64px" height="64px">
    <linearGradient x1="32" x2="32" y1="52" y2="12.02" gradientUnits="userSpaceOnUse" id="K3JD5GSRDQU86sitsPU9zb">
        <stop offset="0" stop-color="#01D391"/>
        <stop offset="100%" stop-color="#028AD0"/>
    </linearGradient>
    <path fill="url(#K3JD5GSRDQU86sitsPU9zb)" d="M 51.7 17.8 c 0 0 -5 -4.8 -11.2 -5.8 c -0.6 -0.1 -1.2 0.3 -1.4 0.9 L 39.1 12.9 c -0.2 0.6 0.2 1.3 0.8 1.5 c 4.6 1.3 7.2 3 9.6 5 c 0.1 0.1 0 0.4 -0.2 0.3 C 44.7 17.5 39.9 16 32 16 c -7.9 0 -12.7 1.5 -17.3 3.7 c -0.2 0.1 -0.3 -0.2 -0.2 -0.3 c 2.4 -2.1 5.3 -3.9 9.5 -5 c 0.6 -0.2 1 -0.8 0.8 -1.5 c -0.2 -0.6 -0.8 -1 -1.4 -0.9 c -6.4 1.1 -11.2 5.7 -11.2 5.7 s -6.1 8.7 -7.3 25.9 c 0 0.7 0.2 1.3 0.6 1.8 c 5 5.2 11.7 6.3 14.3 6.5 c 0.7 0.1 1.3 -0.2 1.7 -0.8 c 0.6 -0.9 0.2 -2.2 -0.8 -2.7 c -2.4 -1.1 -5 -2.7 -7.3 -5.1 c -0.1 -0.1 0 -0.4 0.2 -0.3 C 17.6 45.8 23.3 48 32 48 s 14.4 -2.2 18.4 -4.8 c 0.2 -0.1 0.3 0.1 0.2 0.3 c -2.3 2.4 -4.9 4 -7.3 5.1 c -1 0.5 -1.5 1.7 -0.8 2.7 c 0.4 0.6 1 0.9 1.7 0.8 c 2.5 -0.2 9.2 -1.3 14.3 -6.5 c 0.5 -0.5 0.7 -1.1 0.6 -1.8 C 57.7 26.5 51.7 17.8 51.7 17.8 z M 24.5 40 c -2.5 0 -4.5 -2.2 -4.5 -5 s 2 -5 4.5 -5 s 4.5 2.2 4.5 5 S 27 40 24.5 40 z M 39.5 40 c -2.5 0 -4.5 -2.2 -4.5 -5 s 2 -5 4.5 -5 s 4.5 2.2 4.5 5 S 42 40 39.5 40 z">
    </path>
</svg>